<?xml version="1.0" encoding="UTF-8" standalone="no"?>
<svg
   xmlns:dc="http://purl.org/dc/elements/1.1/"
   xmlns:cc="http://creativecommons.org/ns#"
   xmlns:rdf="http://www.w3.org/1999/02/22-rdf-syntax-ns#"
   xmlns:svg="http://www.w3.org/2000/svg"
   xmlns="http://www.w3.org/2000/svg"
   version="1.1"
   id="svg2"
   viewBox="0 0 815.35223 238.87865"
   height="67.416862mm"
   width="230.11052mm">
  <defs
     id="defs4" />
  <metadata
     id="metadata7">
    <rdf:RDF>
      <cc:Work
         rdf:about="">
        <dc:format>image/svg+xml</dc:format>
        <dc:type
           rdf:resource="http://purl.org/dc/dcmitype/StillImage" />
        <dc:title></dc:title>
      </cc:Work>
    </rdf:RDF>
  </metadata>
  <g
     transform="translate(57.142874,-310.62641)"
     id="layer1">
    <path
       d="m 10.356785,549.50506 -67.499659,0 22.499886,-22.75035 67.49966,-182.00277 0,-11.37518 22.499886,-22.75035 78.749602,216.1283 22.49989,22.75035 -67.499662,0 11.249942,-22.75035 -16.031167,-45.50069 -80.4370944,0 -16.0311696,45.50069 22.499886,22.75035 z m 33.74983,-182.00277 -36.2810663,102.37656 72.2808853,0 -35.999819,-102.37656 z"
       style="font-style:normal;font-variant:normal;font-weight:bold;font-stretch:normal;font-size:medium;line-height:125%;font-family:AvaraTwo;-inkscape-font-specification:'AvaraTwo Bold';text-align:start;writing-mode:lr-tb;text-anchor:start;fill:#000000;fill-opacity:1;stroke:none;stroke-width:1;stroke-linecap:butt;stroke-linejoin:miter;stroke-miterlimit:0;stroke-dasharray:none;stroke-dashoffset:0;stroke-opacity:1"
       id="path4462" />
    <path
       d="m 226.53968,549.50506 -22.49989,0 -44.99977,-125.1269 -22.49989,-22.75035 78.74961,0 -22.49989,22.75035 33.74983,91.00138 33.74983,-91.00138 -22.49988,-22.75035 67.49965,0 -22.49988,22.75035 -44.99977,102.37655 -11.24995,22.75035 z"
       style="font-style:normal;font-variant:normal;font-weight:bold;font-stretch:normal;font-size:medium;line-height:125%;font-family:AvaraTwo;-inkscape-font-specification:'AvaraTwo Bold';text-align:start;writing-mode:lr-tb;text-anchor:start;fill:#000000;fill-opacity:1;stroke:none;stroke-width:1;stroke-linecap:butt;stroke-linejoin:miter;stroke-miterlimit:0;stroke-dasharray:none;stroke-dashoffset:0;stroke-opacity:1"
       id="path4464" />
    <path
       d="m 373.92902,390.25263 44.99977,11.37518 11.24995,22.75035 0,102.37655 22.49989,-11.37517 0,11.37517 -22.49989,22.75035 -11.24995,0 -11.24994,-22.75035 -33.74983,22.75035 -22.49989,0 -22.49988,-11.37517 -22.49989,-34.12553 11.24995,-34.12551 22.49989,-11.37518 56.24971,-11.37517 0,-22.75034 -11.24994,-11.37518 -22.49989,0 -11.24995,22.75035 -22.49988,-22.75035 44.99977,-22.75035 z m 22.49989,68.25104 -44.99978,22.75035 -11.24993,22.75034 22.49988,34.12553 22.49989,-11.37518 11.24994,-22.75035 0,-45.50069 z"
       style="font-style:normal;font-variant:normal;font-weight:bold;font-stretch:normal;font-size:medium;line-height:125%;font-family:AvaraTwo;-inkscape-font-specification:'AvaraTwo Bold';text-align:start;writing-mode:lr-tb;text-anchor:start;fill:#000000;fill-opacity:1;stroke:none;stroke-width:1;stroke-linecap:butt;stroke-linejoin:miter;stroke-miterlimit:0;stroke-dasharray:none;stroke-dashoffset:0;stroke-opacity:1"
       id="path4466" />
    <path
       d="m 530.33211,390.25263 -11.24994,45.5007 0,11.37517 33.74983,-45.50069 22.49988,-11.37518 22.49989,11.37518 0,22.75035 -22.49989,34.12551 -11.24994,0 0,-34.12551 -11.24994,0 -22.49989,22.75034 0,79.62621 22.49989,22.75035 -78.7496,0 22.49989,-22.75035 0,-102.37655 -33.74984,-11.37518 67.49966,-22.75035 z"
       style="font-style:normal;font-variant:normal;font-weight:bold;font-stretch:normal;font-size:medium;line-height:125%;font-family:AvaraTwo;-inkscape-font-specification:'AvaraTwo Bold';text-align:start;writing-mode:lr-tb;text-anchor:start;fill:#000000;fill-opacity:1;stroke:none;stroke-width:1;stroke-linecap:butt;stroke-linejoin:miter;stroke-miterlimit:0;stroke-dasharray:none;stroke-dashoffset:0;stroke-opacity:1"
       id="path4468" />
    <path
       d="m 679.45978,390.25263 44.99977,11.37518 11.24995,22.75035 0,102.37655 22.49988,-11.37517 0,11.37517 -22.49988,22.75035 -11.24995,0 -11.24994,-22.75035 -33.74983,22.75035 -22.49989,0 -22.49988,-11.37517 -22.49989,-34.12553 11.24995,-34.12551 22.49988,-11.37518 56.24971,-11.37517 0,-22.75034 -11.24993,-11.37518 -22.49989,0 -11.24995,22.75035 -22.49988,-22.75035 44.99977,-22.75035 z m 22.49988,68.25104 -44.99977,22.75035 -11.24994,22.75034 22.49989,34.12553 22.49989,-11.37518 11.24993,-22.75035 0,-45.50069 z"
       style="font-style:normal;font-variant:normal;font-weight:bold;font-stretch:normal;font-size:medium;line-height:125%;font-family:AvaraTwo;-inkscape-font-specification:'AvaraTwo Bold';text-align:start;writing-mode:lr-tb;text-anchor:start;fill:#000000;fill-opacity:1;stroke:none;stroke-width:1;stroke-linecap:butt;stroke-linejoin:miter;stroke-miterlimit:0;stroke-dasharray:none;stroke-dashoffset:0;stroke-opacity:1"
       id="path4470" />
  </g>
</svg>
